<?xml version="1.0" standalone="no"?><!DOCTYPE svg PUBLIC "-//W3C//DTD SVG 1.1//EN" "http://www.w3.org/Graphics/SVG/1.1/DTD/svg11.dtd"><svg t="1561709035445" class="icon" viewBox="0 0 1445 1024" version="1.1" xmlns="http://www.w3.org/2000/svg" p-id="3119" xmlns:xlink="http://www.w3.org/1999/xlink" width="67.734375" height="48"><defs><style type="text/css"></style></defs><path d="M1295.200678 211.154824H1415.550795c16.594824 0 29.967059 13.372235 29.967059 29.967058A29.906824 29.906824 0 0 1 1415.550795 271.058824h-120.350117v-59.934118z m0 180.916705H1415.550795a29.936941 29.936941 0 1 1 0 59.934118h-120.350117v-59.934118z m0 180.886589H1415.550795c16.594824 0 29.967059 13.372235 29.967059 29.967058 0 16.564706-13.372235 29.967059-29.967059 29.967059h-120.350117v-59.934117zM1295.200678 753.844706H1415.550795c16.594824 0 29.967059 13.402353 29.967059 29.967059 0 16.594824-13.372235 29.997176-29.967059 29.997176h-120.350117v-59.934117zM29.988442 211.154824h120.380236v60.476235H29.988442a29.906824 29.906824 0 0 1-29.936941-29.967059 29.394824 29.394824 0 0 1 29.936941-30.509176z m0 180.916705h120.380236v60.476236H29.988442a29.906824 29.906824 0 0 1-29.936941-29.997177c0-16.564706 12.830118-30.479059 29.936941-30.479059z m0 180.886589h120.380236v59.934117H29.988442a29.936941 29.936941 0 0 1-29.936941-29.967059c-0.542118-16.564706 12.830118-29.967059 29.936941-29.967058z m0 180.886588h120.380236v60.506353H29.988442a29.906824 29.906824 0 0 1-29.936941-29.997177 29.394824 29.394824 0 0 1 29.936941-30.509176zM1230.989854 121.765647A120.591059 120.591059 0 0 0 1110.639736 1.355294H329.568678a120.560941 120.560941 0 0 0-120.350118 120.410353v780.890353a120.591059 120.591059 0 0 0 120.350118 120.410353h780.528941a120.591059 120.591059 0 0 0 120.380235-120.410353V121.765647h0.512zM1114.374325 970.089412H331.195031c-36.382118 0-63.126588-29.455059-63.126589-65.837177V477.696h424.749177a27.828706 27.828706 0 0 0 16.052706-4.276706l192.060235-139.715765c11.745882 5.360941 24.606118 9.095529 38.520471 9.09553a90.322824 90.322824 0 0 0 90.383058-90.443294 90.654118 90.654118 0 0 0-90.383058-90.443294A90.654118 90.654118 0 0 0 849.037854 252.385882c0 16.052706 4.276706 30.509176 11.233882 43.369412L683.691972 424.176941H268.068442V120.711529c0-36.412235 26.744471-65.837176 63.126589-65.837176H1114.374325c36.382118 0 63.126588 29.424941 63.126588 65.837176V547.237647H752.721619c-5.872941 0-11.745882 1.054118-16.022588 4.276706l-192.060236 140.227765a92.461176 92.461176 0 0 0-38.550588-9.09553 90.322824 90.322824 0 0 0-90.383059 90.443294 90.654118 90.654118 0 0 0 90.413177 90.443294 90.654118 90.654118 0 0 0 90.413176-90.443294 90.051765 90.051765 0 0 0-11.233882-43.369411l176.519529-128.421647h415.683765v303.465411c0 35.84-26.744471 65.295059-63.126588 65.295059z" fill="#367BF0" p-id="3120"></path></svg>