<?xml version="1.0" standalone="no"?><!DOCTYPE svg PUBLIC "-//W3C//DTD SVG 1.1//EN" "http://www.w3.org/Graphics/SVG/1.1/DTD/svg11.dtd"><svg t="1561709270110" class="icon" viewBox="0 0 1024 1024" version="1.1" xmlns="http://www.w3.org/2000/svg" p-id="9186" xmlns:xlink="http://www.w3.org/1999/xlink" width="48" height="48"><defs><style type="text/css"></style></defs><path d="M516.87619 1005.578836c-0.722399 0-23.116755 0-187.823633-5.779189-72.601058-2.528395-167.235273-27.812346-207.689594-132.92134-16.615168-43.705115-37.203527-140.867725 13.003175-301.96261 29.979541-96.079012 76.93545-186.740035 117.028571-225.38836 18.059965-17.337566 44.788713-36.842328 70.795062-55.624691 21.671958-15.892769 54.902293-40.093122 70.433862-55.985891-4.695591-6.140388-7.585185-13.364374-7.585185-21.310759 0-8.668783 3.250794-16.615168 9.029982-23.116754-3.250794-5.05679-7.223986-10.835979-12.280776-18.059965-14.447972-20.58836-34.313933-48.761905-55.98589-95.356614l-10.113581-21.671958 21.310759-10.835978c57.430688-28.895944 85.965432-2.167196 105.108995 15.531569 13.003175 11.919577 18.421164 16.615168 29.979541 14.809171 15.53157-7.946384 27.812346-15.17037 38.648324-21.310758 48.761905-28.534744 71.87866-39.009524 162.178484-11.197178l23.116755 7.223986-6.862787 23.116755c-15.892769 54.179894-32.507937 83.437037-43.343915 102.941799-2.167196 3.973192-3.973192 7.223986-5.41799 10.11358 8.307584 6.862787 13.003175 16.615168 13.003175 27.451146 0 8.307584-2.889594 15.892769-7.946385 22.033157 14.447972 15.53157 49.484303 41.537919 71.87866 58.514286 25.283951 18.782363 49.484303 36.842328 66.099471 52.735097 40.093122 38.648325 87.04903 129.309347 117.028571 225.38836 50.206702 161.094885 29.618342 258.618695 12.641976 302.323809-22.394356 58.153086-76.213051 128.586949-207.689595 133.28254-165.429277 5.05679-187.823633 5.05679-188.546032 5.05679zM448.609524 224.304762c-0.361199 1.444797-0.361199 2.889594-0.722399 4.334391-6.862787 27.089947-41.537919 53.457496-97.16261 94.273016-24.561552 18.059965-49.845503 36.481129-65.738272 51.651499-63.571076 61.042681-175.181658 324.718166-118.112169 474.615873 24.922751 65.377072 78.380247 98.607407 163.62328 101.497002 161.817284 5.779189 185.295238 5.779189 186.378836 5.779189 0.722399 0 24.200353 0 186.378836-5.779189 85.243034-2.889594 138.700529-36.481129 163.623281-101.858201 57.430688-149.897707-54.541093-413.573192-118.112169-474.977072-14.447972-13.725573-38.287125-31.785538-61.403881-48.761905-53.457496-39.731922-87.04903-65.738272-95.356613-91.022222-1.444797-3.611993-2.167196-6.501587-2.889595-9.029983l-2.528395-8.307583h-4.334391l1.083598-11.919577-2.167196-7.585185 2.889594-0.361199 0.722399-6.862787c1.444797-17.337566 9.029982-30.70194 17.698765-46.23351 8.668783-15.17037 19.865961-35.397531 31.785538-69.350264-52.373898-13.725573-64.654674-6.501587-98.968607 13.725573-11.558377 6.862787-26.367549 15.53157-44.788712 24.561552l-2.889594 1.444797-2.889595 0.722399c-39.009524 8.307584-61.40388-12.641975-76.213051-26.367549-9.752381-9.029982-16.253968-14.809171-25.64515-14.809171h-0.361199c15.17037 28.534744 28.895944 48.039506 39.370723 63.209877 12.641975 18.059965 22.755556 32.507937 27.089947 50.567901l2.528395 10.11358 4.334392 0.361199-2.167196 8.307584 1.805996 7.223986-3.611993 0.361199-3.250793 10.47478z m0 0.361199z" fill="#AAAAAA" p-id="9187"></path><path d="M452.943915 702.893827c3.250794 23.477954 6.501587 35.036332 15.53157 46.594709 11.197178 14.809171 28.895944 22.394356 51.2903 22.394356 38.648325 0 62.848677-23.477954 62.848677-61.04268 0-17.698765-4.334392-31.063139-13.725573-39.370723-10.47478-9.391182-19.504762-13.364374-52.373898-23.116755-35.397531-10.835979-50.567901-18.421164-65.738271-33.230335-15.53157-15.17037-23.839153-39.009524-23.839154-66.82187 0-23.116755 6.501587-44.788713 19.143563-61.765079 15.53157-21.671958 39.370723-33.230335 68.989065-33.230335 29.979541 0 53.457496 10.11358 69.711464 30.70194 11.558377 14.086772 17.698765 28.534744 23.477954 58.153086l-35.036332 8.307584c-2.528395-17.337566-4.695591-24.922751-11.197178-33.952734-10.11358-15.892769-26.006349-24.200353-46.233509-24.200353-32.507937 0-55.263492 23.477954-55.263492 57.430688 0 14.809171 5.417989 27.451146 15.17037 35.036332 10.11358 8.307584 21.671958 13.364374 49.123104 21.671958 42.982716 14.086772 57.069489 21.671958 70.433862 36.481128 13.725573 15.892769 21.310758 40.093122 21.310759 66.46067 0 63.571076-37.564727 103.302998-98.246208 103.302999-40.454321 0-71.51746-17.337566-87.771429-49.845503-6.501587-13.364374-9.752381-24.200353-14.086772-50.206702l36.481128-9.752381z" fill="#AAAAAA" p-id="9188"></path><path d="M470.014194 832.528254l87.648621-387.151464 25.363414 5.743069-87.648621 387.151464z" fill="#AAAAAA" p-id="9189"></path></svg>