<?xml version="1.0" standalone="no"?><!DOCTYPE svg PUBLIC "-//W3C//DTD SVG 1.1//EN" "http://www.w3.org/Graphics/SVG/1.1/DTD/svg11.dtd"><svg t="1561708833060" class="icon" viewBox="0 0 1024 1024" version="1.1" xmlns="http://www.w3.org/2000/svg" p-id="1987" xmlns:xlink="http://www.w3.org/1999/xlink" width="48" height="48"><defs><style type="text/css"></style></defs><path d="M1020.633425 511.102247a47.244274 47.244274 0 0 1-47.300384 47.300383H554.474959v409.6a47.300384 47.300384 0 0 1-47.356493 47.356493 47.300384 47.300384 0 0 1-47.300384-47.356493v-409.6h-409.6a47.300384 47.300384 0 0 1-47.356493-47.300383 47.356493 47.356493 0 0 1 47.356493-47.356494h409.6V55.436274a47.300384 47.300384 0 0 1 47.300384-47.356493 47.300384 47.300384 0 0 1 47.356493 47.356493v408.309479h418.858082a47.300384 47.300384 0 0 1 47.300384 47.356494z" p-id="1988"></path></svg>