<?xml version="1.0" standalone="no"?><!DOCTYPE svg PUBLIC "-//W3C//DTD SVG 1.1//EN" "http://www.w3.org/Graphics/SVG/1.1/DTD/svg11.dtd"><svg t="1561709452375" class="icon" viewBox="0 0 1024 1024" version="1.1" xmlns="http://www.w3.org/2000/svg" p-id="10224" xmlns:xlink="http://www.w3.org/1999/xlink" width="48" height="48"><defs><style type="text/css"></style></defs><path d="M572.928 921.1392a37.376 37.376 0 0 1-39.1168-36.352V558.08c0-25.0368 20.48-54.1184 47.7184-67.7376l227.7376-120.4736a57.8048 57.8048 0 0 1 27.2896-6.8096A37.4272 37.4272 0 0 1 875.52 399.36v326.8608c0 24.9856-20.48 54.0672-47.7696 67.6864l-227.7376 120.4736a61.7984 61.7984 0 0 1-27.0848 6.7584zM503.808 457.9328a102.4 102.4 0 0 1-46.336-10.24L203.3664 321.5872c-17.3056-8.6528-27.2896-22.272-27.7504-38.1952s10.24-30.0032 27.7504-39.0656l256.8192-131.3792a115.4048 115.4048 0 0 1 49.1008-10.9056 102.4 102.4 0 0 1 46.08 9.984l254.1056 126.3616c17.3056 8.6528 27.2896 22.272 27.7504 38.1952s-9.984 30.0032-27.7504 39.0656L552.96 447.0272a103.168 103.168 0 0 1-49.152 10.9056z m286.72-180.4288a0.4608 0.4608 0 0 0 0.4608-0.4608z" fill="#4DB7FC" p-id="10225"></path><path d="M451.072 921.1392a63.3856 63.3856 0 0 1-27.2384-6.8096l-0.4608-0.4608-227.2768-120.0128c-27.136-13.6192-47.616-42.7008-47.616-67.6864V402.0224a37.7856 37.7856 0 0 1 36.864-39.0656h2.7136A63.7952 63.7952 0 0 1 215.04 369.7664l0.4096 0.4608 227.328 120.0128c27.2384 13.6192 47.7184 42.7008 47.7184 67.7376v324.096a37.7344 37.7344 0 0 1-36.8128 39.0656z" fill="#0098FB" p-id="10226"></path></svg>