<?xml version="1.0" standalone="no"?><!DOCTYPE svg PUBLIC "-//W3C//DTD SVG 1.1//EN" "http://www.w3.org/Graphics/SVG/1.1/DTD/svg11.dtd"><svg t="1562223078914" class="icon" viewBox="0 0 1024 1024" version="1.1" xmlns="http://www.w3.org/2000/svg" p-id="6654" xmlns:xlink="http://www.w3.org/1999/xlink" width="48" height="48"><defs><style type="text/css"></style></defs><path d="M909.94688 963.968h-74.83392c-4.89472 0-9.088 4.23936-9.088 9.18016v41.66656c0 4.9408-4.1984 9.18528-9.09312 9.18528h-69.9392c-4.89472 0-9.09312-4.24448-9.09312-9.18528v-41.66656c0-4.9408-4.19328-9.18016-9.09312-9.18016h-32.86528c-4.89472 0-9.09312-4.23936-9.09312-9.18528v-251.40736c0-4.9408 4.1984-9.17504 9.09312-9.17504h32.86528c4.89984 0 9.09312-4.23936 9.09312-9.18016v-41.67168c0-4.9408 4.1984-9.18016 9.09312-9.18016h69.9392c4.89472 0 9.09312 4.23936 9.09312 9.18016v41.67168c0 4.9408 4.19328 9.18016 9.088 9.18016h74.83392c4.89472 0 9.09312 4.23424 9.09312 9.17504v251.40736c0 4.94592-4.1984 9.18528-9.09312 9.18528z m-304.01024-354.42176c0.2816 0.87552 0.48128 1.78176 0.48128 2.73408v73.4464c0 4.9408 4.1984 9.18016 9.09312 9.18016h11.1872c4.89984 0 9.09312 4.23424 9.09312 9.18016v251.40736c0 4.9408-4.19328 9.18016-9.09312 9.18016h-11.1872c-4.89472 0-9.09312 4.23936-9.09312 9.18528v10.58304c0 4.94592-4.19328 9.1904-9.09312 9.1904H432.96768c-4.89472 0-9.088-4.24448-9.088-9.1904v-10.58304c0-4.94592-4.1984-9.18528-9.09312-9.18528h-12.5952c-4.89472 0-9.088-4.23936-9.088-9.18016v-251.40736c0-4.94592 4.19328-9.18016 9.088-9.18016h12.5952c4.89472 0 9.09312-4.23936 9.09312-9.18016v-73.4464c0-0.31232 0.06144-0.61952 0.09728-0.92672-127.79008-38.31296-221.10208-157.78816-221.10208-299.2128C202.87488 139.83232 341.3504 0 512 0c171.34592 0 309.12512 139.83232 309.12512 312.1408 0 139.2384-90.43968 257.22368-215.18848 297.40544zM512 98.8672c-116.79744 0-211.21536 95.33952-211.21536 213.2736 0 117.93408 94.41792 213.2736 211.21536 213.2736s211.21536-95.33952 211.21536-213.2736c0-117.93408-94.41792-213.2736-211.21536-213.2736z m29.9776 190.2592H488.04864v0.896H364.25728V234.91584h301.51168v55.10656H541.9776v-0.896z m0 168.66304H488.04864V290.0224h53.92896v167.76704zM207.7696 685.02016v-51.5584c0-4.9408 4.19328-9.18016 9.088-9.18016h69.94432c4.89472 0 9.088 4.23936 9.088 9.18016v51.5584c0 4.9408 4.1984 9.18016 9.09312 9.18016h27.97568c4.89984 0 9.09312 4.23424 9.09312 9.17504v251.40736c0 4.94592-4.19328 9.18528-9.09312 9.18528h-27.97568c-4.89472 0-9.09312 4.23936-9.09312 9.18016v32.4864c0 4.9408-4.19328 9.18016-9.088 9.18016H216.8576c-4.89472 0-9.088-4.23936-9.088-9.18016v-32.4864c0-4.9408-4.1984-9.18016-9.09312-9.18016H114.05312c-4.89984 0-9.09312-4.23936-9.09312-9.18528v-251.40736c0-4.9408 4.19328-9.17504 9.09312-9.17504h84.62336c4.89472 0 9.09312-4.23936 9.09312-9.18016z" p-id="6655"></path></svg>